#define unimusFav_width 16
#define unimusFav_height 16
static unsigned char unimusFav_bits[] = {
   0x40, 0x02, 0x40, 0x02, 0x44, 0x22, 0x5c, 0x36, 0xf0, 0x0f, 0x23, 0xc4,
   0x26, 0x64, 0x18, 0x18, 0x18, 0x18, 0x2e, 0x74, 0x22, 0x45, 0xf0, 0x0f,
   0x5c, 0x3a, 0x40, 0x22, 0x40, 0x02, 0x40, 0x02 };
